<svg xmlns="http://www.w3.org/2000/svg"><symbol id="icon-cart" viewBox="0 0 34 35">
    <title>
        Forma 1
    </title>
    <path d="M29.75 26.5H12.055l-7.438-17H0V7.375h6.008l7.437 17H29.75zM34 8.437a7.439 7.439 0 0 1-14.875 0 7.439 7.439 0 0 1 14.875 0zm-3.188-1.062h-3.187V4.187H25.5v3.188h-3.188V9.5H25.5v3.187h2.125V9.5h3.187zM19.125 31.812a3.187 3.187 0 1 1-6.375 0 3.187 3.187 0 0 1 6.375 0zm10.625 0a3.189 3.189 0 1 1-3.188-3.188 3.189 3.189 0 0 1 3.188 3.188zm2.453-15.692l-2.453 6.13H14.875l-4.25-10.625h6.962C18.907 15.327 22.412 18 26.562 18c2.115 0 4.055-.714 5.641-1.88z"/>
</symbol><symbol id="icon-edge-1" viewBox="0 0 41 29">
    <title>
        Forma 1
    </title>
    <path d="M40.415 21.67h-1.422v-8c0-.94-.28-1.86-.801-2.63l-3.563-5.32a4.686 4.686 0 0 0-3.879-2.07h-5.523c-.65 0-1.17.53-1.17 1.18v16.84h-9.045c.86.75 1.451 1.79 1.62 2.97h9.537c.34-2.34 2.34-4.15 4.757-4.15 2.416 0 4.41 1.81 4.75 4.15h4.739c.322 0 .585-.27.585-.59v-1.79c0-.33-.263-.59-.585-.59zM1.439 18.19v1.13c0 .32.264.59.585.59H21.8c.322 0 .585-.27.585-.59V1.77.59c0-.32-.264-.59-.586-.59H2.024a.592.592 0 0 0-.585.59v17.6zm10.438 3.48c-2.007 0-3.64 1.64-3.64 3.67 0 2.02 1.633 3.66 3.64 3.66 2.012 0 3.639-1.64 3.639-3.66 0-2.03-1.627-3.67-3.64-3.67zm19.048 0c-2.012 0-3.639 1.64-3.639 3.67 0 2.02 1.627 3.66 3.64 3.66 2.006 0 3.638-1.64 3.638-3.66 0-2.03-1.632-3.67-3.639-3.67zm3.663-9.58h-7.29a.577.577 0 0 1-.585-.58V7.44c0-.33.263-.59.585-.59h4.44c.194 0 .37.09.48.25l2.85 4.07c.269.39-.006.92-.48.92zM0 22.26v1.79c0 .32.263.59.585.59h6.54c.17-1.18.761-2.22 1.616-2.97H.585a.586.586 0 0 0-.585.59zm30.925 4.91a1.83 1.83 0 0 1-1.819-1.83c0-1.02.813-1.83 1.82-1.83 1.006 0 1.819.81 1.819 1.83 0 1-.813 1.83-1.82 1.83zm-19.049 0a1.83 1.83 0 0 1-1.819-1.83c0-1.02.813-1.83 1.82-1.83 1.006 0 1.819.81 1.819 1.83 0 1-.813 1.83-1.82 1.83z"/>
</symbol><symbol id="icon-edge-2" viewBox="0 0 38 38">
    <title>
        Shape 1
    </title>
    <path d="M30.508 8.82L10.442.21C9.221-.32 7.784.21 7.238 1.4L.212 16.65c-.546 1.18 0 2.58 1.229 3.11l4.047 1.69c.505.22 1.084-.14 1.084-.68V14.3c0-2.48 2.079-4.5 4.641-4.5h19.078v-.01c.571 0 .731-.74.217-.97zm5.035 3.09H11.205c-1.357 0-2.457 1.06-2.457 2.38v16.65c0 1.31 1.1 2.38 2.457 2.38h3.268a8.419 8.419 0 0 1 .032-3.02h-2.634v-7.97h23.013v7.96h-2.641a8.418 8.418 0 0 1 .032 3.02h3.268C36.9 33.31 38 32.25 38 30.93V14.29c0-1.32-1.1-2.38-2.457-2.38zm-.659 5.51H11.871v-2.49h23.013zm-11.506 8.35c-3.485 0-6.312 2.74-6.312 6.12 0 3.37 2.827 6.11 6.312 6.11 3.485 0 6.311-2.74 6.311-6.11 0-3.38-2.826-6.12-6.311-6.12z"/>
</symbol><symbol id="icon-edge-3" viewBox="0 0 29 39">
    <title>
        Forma 1
    </title>
    <path d="M24.167 13.41C24.167 6.01 19.831 0 14.5 0 9.171 0 4.833 6.01 4.833 13.41H0V39h29V13.41zM14.5 2.44c3.998 0 7.25 4.92 7.25 10.97H7.25c0-6.05 3.252-10.97 7.25-10.97zM6.042 18.28a1.21 1.21 0 0 1-1.209-1.22c0-.67.541-1.22 1.209-1.22s1.208.55 1.208 1.22c0 .68-.54 1.22-1.208 1.22zm16.916 0a1.21 1.21 0 0 1-1.208-1.22c0-.67.54-1.22 1.208-1.22.668 0 1.209.55 1.209 1.22 0 .68-.541 1.22-1.209 1.22z"/>
</symbol><symbol id="icon-edge-4" viewBox="0 0 38 38">
    <title>
        Shape 1
    </title>
    <path d="M38 4V0H0v4zM16.522 22.49V38l4.956-3.27V22.49zM1.239 6.13l14.044 13.9h7.434l14.044-13.9z"/>
</symbol><symbol id="icon-eye" viewBox="0 0 28 16">
    <title>
        Forma 1
    </title>
    <path d="M23.426 4.93c-5.222-5.27-13.718-5.27-18.94 0L.998 8.44l3.575 3.61a13.296 13.296 0 0 0 9.47 3.94c3.43 0 6.859-1.31 9.47-3.94l3.488-3.52zm-.534 6.49c-4.88 4.92-12.819 4.92-17.698 0L2.241 8.44l2.866-2.89c4.88-4.92 12.819-4.92 17.698 0l2.954 2.98zm-9.344-6.49c-1.695 0-3.075 1.39-3.075 3.1 0 .24.197.44.44.44.242 0 .439-.2.439-.44 0-1.22.985-2.21 2.196-2.21.243 0 .439-.2.439-.45 0-.24-.196-.44-.439-.44zm.439-2.21c-3.148 0-5.71 2.58-5.71 5.75 0 3.18 2.562 5.76 5.71 5.76 3.149 0 5.71-2.58 5.71-5.76 0-3.17-2.561-5.75-5.71-5.75zm0 10.62c-2.664 0-4.831-2.18-4.831-4.87 0-2.68 2.167-4.87 4.831-4.87 2.664 0 4.832 2.19 4.832 4.87 0 2.69-2.167 4.87-4.832 4.87z"/>
</symbol><symbol id="icon-mail" viewBox="0 0 38 38">
    <title>
        Forma 1
    </title>
    <path d="M15.438 23.75H2.374v-6.775L0 15.618v10.507h15.438zm0-6.095v-2.728l-4.75 2.705L4.75 14.25h10.423a6.398 6.398 0 0 0-2.018-2.375H0v2.375l10.688 6.118zM38 14.25v16.625H23.75V38h-7.125v-7.125H0V28.5h16.625V14.612C15.6 11.587 12.715 9.5 9.5 9.5H3.112C4.86 8.018 7.09 7.125 9.5 7.125h11.875V0h9.5v4.75H23.75v11.875h2.375v-9.5H28.5A9.898 9.898 0 0 1 38 14.25z"/>
</symbol><symbol id="icon-main-arrow-left" viewBox="0 0 20 34">
    <title>
        Shape 1
    </title>
    <path d="M1.273 16.322L17.454.283a.975.975 0 0 1 1.373 0 .953.953 0 0 1 0 1.361L3.337 16.999l15.49 15.355a.953.953 0 0 1 0 1.361.983.983 0 0 1-.683.285.952.952 0 0 1-.683-.285L1.281 17.676a.951.951 0 0 1-.008-1.354z"/>
</symbol><symbol id="icon-main-arrow-right" viewBox="0 0 19 34">
    <title>
        Shape 1 copy
    </title>
    <path d="M18.72 16.322L2.54.283a.971.971 0 0 0-1.37 0 .955.955 0 0 0 0 1.361l15.49 15.355L1.17 32.354a.955.955 0 0 0 0 1.361c.18.185.44.285.68.285.24 0 .5-.093.68-.285l16.18-16.039a.955.955 0 0 0 .01-1.354z"/>
</symbol><symbol id="icon-search" viewBox="0 0 26 26">
    <title>
        Forma 1
    </title>
    <path d="M17.687 3.85C13.872.036 7.664.036 3.849 3.85c-3.813 3.815-3.813 10.022 0 13.837 3.397 3.396 8.688 3.76 12.5 1.108.08.38.264.741.558 1.037l5.556 5.553a2.064 2.064 0 0 0 2.923 0 2.064 2.064 0 0 0 0-2.922l-5.555-5.556a2.05 2.05 0 0 0-1.037-.557c2.654-3.813 2.29-9.101-1.107-12.5zm-1.754 12.083c-2.848 2.848-7.482 2.848-10.33 0-2.846-2.847-2.846-7.48 0-10.328 2.848-2.848 7.482-2.848 10.33 0s2.848 7.48 0 10.328z"/>
</symbol><symbol id="icon-soc-fb" viewBox="0 0 32 31">
    <title>
        Forma 1
    </title>
    <path d="M15.843 0C7.467 0 .653 6.77.653 15.08s6.814 15.08 15.19 15.08 15.191-6.77 15.191-15.08S24.219 0 15.843 0zm3.778 15.61H17.15v8.74h-3.662v-8.74h-1.741v-3.09h1.741v-2c0-1.43.685-3.67 3.695-3.67l2.713.01v3h-1.97c-.32 0-.776.16-.776.85v1.81h2.791z"/>
</symbol><symbol id="icon-soc-tw" viewBox="0 0 32 31">
    <title>
        Forma 1
    </title>
    <path d="M16.382 0C7.774 0 .77 6.95.77 15.5c0 8.54 7.004 15.49 15.612 15.49 8.609 0 15.613-6.95 15.613-15.49 0-8.55-7.004-15.5-15.613-15.5zm6.965 11.95c.007.16.011.31.011.47 0 4.71-3.614 10.14-10.225 10.14-2.03 0-3.919-.59-5.508-1.6.281.03.567.05.857.05 1.684 0 3.233-.57 4.463-1.53a3.586 3.586 0 0 1-3.357-2.47c.219.04.444.06.675.06.328 0 .646-.04.947-.12-1.644-.33-2.882-1.77-2.882-3.5l.001-.05c.484.27 1.038.43 1.627.45a3.558 3.558 0 0 1-1.112-4.76 10.225 10.225 0 0 0 7.406 3.73 3.688 3.688 0 0 1-.092-.82c0-1.97 1.608-3.56 3.593-3.56 1.034 0 1.967.43 2.623 1.12a7.197 7.197 0 0 0 2.283-.86c-.27.83-.839 1.53-1.581 1.97a7.47 7.47 0 0 0 2.064-.56 7.275 7.275 0 0 1-1.793 1.84z"/>
</symbol><symbol id="icon-soc-vk" viewBox="0 0 31 31">
    <title>
        Forma 1
    </title>
    <path d="M15.195 0C6.804 0 .001 6.75.001 15.08s6.803 15.08 15.194 15.08c8.391 0 15.194-6.75 15.194-15.08S23.586 0 15.195 0zm7.707 16.71c.708.69 1.458 1.33 2.094 2.09.281.34.547.68.749 1.07.288.56.028 1.17-.474 1.2h-3.112c-.804.07-1.444-.25-1.983-.8-.431-.43-.83-.9-1.245-1.35-.169-.18-.348-.36-.56-.49-.425-.28-.793-.19-1.037.25-.247.44-.304.94-.327 1.44-.034.73-.256.92-.992.95-1.574.07-3.067-.16-4.455-.95-1.224-.69-2.172-1.67-2.997-2.78-1.608-2.17-2.839-4.54-3.946-6.99-.249-.55-.067-.84.545-.85 1.016-.02 2.032-.02 3.048 0 .413 0 .687.24.846.63a18.614 18.614 0 0 0 2.065 3.79c.225.32.454.63.781.86.361.24.635.16.805-.24.109-.25.156-.52.18-.8.081-.93.09-1.86-.05-2.79-.087-.58-.416-.95-.999-1.06-.298-.06-.254-.17-.109-.34.25-.29.485-.47.955-.47h3.517c.554.11.679.35.754.91l.003 3.88c-.006.21.108.85.496.99.311.1.516-.15.702-.34.844-.89 1.445-1.94 1.983-3.02.237-.48.442-.98.641-1.47.148-.37.378-.55.795-.55l3.387.01c.1 0 .201 0 .3.02.57.09.727.34.55.89-.278.87-.818 1.59-1.346 2.32-.566.77-1.169 1.52-1.729 2.3-.514.71-.474 1.07.165 1.69z"/>
</symbol></svg>