<svg id="SvgjsSvg1020" xmlns="http://www.w3.org/2000/svg" version="1.1" xmlns:xlink="http://www.w3.org/1999/xlink" xmlns:svgjs="http://svgjs.com/svgjs" width="38" height="38" viewBox="0 0 38 38"><title>Shape 1</title><desc>Created with Avocode.</desc><defs id="SvgjsDefs1021"></defs><path id="SvgjsPath1022" d="M358.508 1755.82L338.442 1747.21C337.221 1746.68 335.784 1747.21 335.238 1748.4L328.212 1763.65C327.666 1764.8300000000002 328.212 1766.23 329.441 1766.76L333.488 1768.45C333.993 1768.67 334.572 1768.31 334.572 1767.77L334.572 1761.3C334.572 1758.82 336.651 1756.8 339.213 1756.8L358.291 1756.8L358.291 1756.79C358.862 1756.79 359.022 1756.05 358.508 1755.82ZM363.543 1758.91L339.205 1758.91C337.84799999999996 1758.91 336.748 1759.97 336.748 1761.2900000000002L336.748 1777.9400000000003C336.748 1779.2500000000002 337.848 1780.3200000000004 339.205 1780.3200000000004L342.47299999999996 1780.3200000000004C342.393 1779.8500000000004 342.352 1779.3800000000003 342.352 1778.9000000000003C342.352 1778.3500000000004 342.409 1777.8200000000004 342.505 1777.3000000000004L339.871 1777.3000000000004L339.871 1769.3300000000004L362.88399999999996 1769.3300000000004L362.88399999999996 1777.2900000000004L360.24299999999994 1777.2900000000004C360.33899999999994 1777.8100000000004 360.3949999999999 1778.3400000000004 360.3949999999999 1778.8900000000003C360.3949999999999 1779.3700000000003 360.3549999999999 1779.8400000000004 360.2749999999999 1780.3100000000004L363.5429999999999 1780.3100000000004C364.8999999999999 1780.3100000000004 365.9999999999999 1779.2500000000005 365.9999999999999 1777.9300000000003L365.9999999999999 1761.2900000000002C365.9999999999999 1759.9700000000003 364.89999999999986 1758.91 363.5429999999999 1758.91ZM362.884 1764.42L339.87100000000004 1764.42L339.87100000000004 1761.93L362.884 1761.93ZM351.378 1772.77C347.893 1772.77 345.066 1775.51 345.066 1778.8899999999999C345.066 1782.2599999999998 347.893 1784.9999999999998 351.378 1784.9999999999998C354.863 1784.9999999999998 357.68899999999996 1782.2599999999998 357.68899999999996 1778.8899999999999C357.68899999999996 1775.5099999999998 354.86299999999994 1772.77 351.378 1772.77Z " fill="#15308c" fill-opacity="1" transform="matrix(1,0,0,1,-328,-1747)"></path></svg>