<svg id="SvgjsSvg1035" xmlns="http://www.w3.org/2000/svg" version="1.1" xmlns:xlink="http://www.w3.org/1999/xlink" xmlns:svgjs="http://svgjs.com/svgjs" width="32" height="31" viewBox="0 0 32 31"><title>Forma 1</title><desc>Created with Avocode.</desc><defs id="SvgjsDefs1036"></defs><path id="SvgjsPath1037" d="M550.382 2861C541.774 2861 534.77 2867.95 534.77 2876.5C534.77 2885.04 541.774 2891.99 550.382 2891.99C558.991 2891.99 565.9949999999999 2885.04 565.9949999999999 2876.5C565.9949999999999 2867.95 558.9909999999999 2861 550.3819999999998 2861ZM557.347 2872.95C557.3539999999999 2873.1099999999997 557.358 2873.2599999999998 557.358 2873.4199999999996C557.358 2878.1299999999997 553.7439999999999 2883.5599999999995 547.1329999999999 2883.5599999999995C545.103 2883.5599999999995 543.2139999999999 2882.9699999999993 541.6249999999999 2881.9599999999996C541.9059999999998 2881.99 542.1919999999999 2882.0099999999998 542.4819999999999 2882.0099999999998C544.1659999999998 2882.0099999999998 545.7149999999998 2881.4399999999996 546.9449999999998 2880.4799999999996C545.3729999999998 2880.4599999999996 544.0449999999998 2879.4199999999996 543.5879999999999 2878.0099999999998C543.8069999999999 2878.0499999999997 544.0319999999998 2878.0699999999997 544.2629999999998 2878.0699999999997C544.5909999999998 2878.0699999999997 544.9089999999998 2878.0299999999997 545.2099999999998 2877.95C543.5659999999998 2877.62 542.3279999999999 2876.18 542.3279999999999 2874.45C542.3279999999999 2874.43 542.3279999999999 2874.4199999999996 542.3289999999998 2874.3999999999996C542.8129999999999 2874.6699999999996 543.3669999999998 2874.8299999999995 543.9559999999998 2874.8499999999995C542.9919999999997 2874.2099999999996 542.3579999999998 2873.1199999999994 542.3579999999998 2871.8799999999997C542.3579999999998 2871.2299999999996 542.5349999999999 2870.6199999999994 542.8439999999998 2870.0899999999997C544.6149999999998 2872.2499999999995 547.2639999999998 2873.6699999999996 550.2499999999998 2873.8199999999997C550.1889999999997 2873.5499999999997 550.1579999999998 2873.2799999999997 550.1579999999998 2872.9999999999995C550.1579999999998 2871.0299999999997 551.7659999999997 2869.4399999999996 553.7509999999997 2869.4399999999996C554.7849999999997 2869.4399999999996 555.7179999999997 2869.8699999999994 556.3739999999998 2870.5599999999995C557.1929999999998 2870.3999999999996 557.9619999999998 2870.1099999999997 558.6569999999998 2869.6999999999994C558.3869999999998 2870.5299999999993 557.8179999999998 2871.2299999999996 557.0759999999998 2871.669999999999C557.8029999999998 2871.579999999999 558.4959999999998 2871.389999999999 559.1399999999998 2871.109999999999C558.6589999999998 2871.8199999999993 558.0489999999998 2872.4499999999994 557.3469999999998 2872.9499999999994Z " fill="#959595" fill-opacity="1" transform="matrix(1,0,0,1,-534,-2861)"></path></svg>