<svg id="SvgjsSvg1029" xmlns="http://www.w3.org/2000/svg" version="1.1" xmlns:xlink="http://www.w3.org/1999/xlink" xmlns:svgjs="http://svgjs.com/svgjs" width="31" height="31" viewBox="0 0 31 31"><title>Forma 1</title><desc>Created with Avocode.</desc><defs id="SvgjsDefs1030"></defs><path id="SvgjsPath1031" d="M445.195 2861C436.804 2861 430.001 2867.75 430.001 2876.08C430.001 2884.41 436.804 2891.16 445.195 2891.16C453.586 2891.16 460.389 2884.41 460.389 2876.08C460.389 2867.75 453.586 2861 445.195 2861ZM452.902 2877.71C453.61 2878.4 454.36 2879.04 454.996 2879.8C455.277 2880.1400000000003 455.543 2880.48 455.745 2880.8700000000003C456.033 2881.4300000000003 455.773 2882.0400000000004 455.271 2882.07L452.159 2882.07C451.355 2882.1400000000003 450.715 2881.82 450.176 2881.27C449.745 2880.84 449.346 2880.37 448.931 2879.92C448.762 2879.7400000000002 448.58299999999997 2879.56 448.371 2879.4300000000003C447.94599999999997 2879.15 447.578 2879.2400000000002 447.334 2879.6800000000003C447.087 2880.1200000000003 447.03000000000003 2880.6200000000003 447.007 2881.1200000000003C446.973 2881.8500000000004 446.75100000000003 2882.0400000000004 446.015 2882.07C444.441 2882.1400000000003 442.948 2881.9100000000003 441.56 2881.1200000000003C440.336 2880.4300000000003 439.388 2879.4500000000003 438.563 2878.34C436.955 2876.17 435.724 2873.8 434.61699999999996 2871.3500000000004C434.36799999999994 2870.8 434.54999999999995 2870.51 435.162 2870.5000000000005C436.178 2870.4800000000005 437.19399999999996 2870.4800000000005 438.21 2870.5000000000005C438.623 2870.5000000000005 438.897 2870.7400000000002 439.056 2871.1300000000006C439.60499999999996 2872.4700000000007 440.27799999999996 2873.7400000000007 441.121 2874.9200000000005C441.346 2875.2400000000007 441.575 2875.5500000000006 441.902 2875.7800000000007C442.263 2876.0200000000004 442.537 2875.9400000000005 442.707 2875.540000000001C442.816 2875.290000000001 442.863 2875.020000000001 442.887 2874.7400000000007C442.968 2873.810000000001 442.977 2872.8800000000006 442.837 2871.9500000000007C442.75 2871.370000000001 442.421 2871.000000000001 441.83799999999997 2870.890000000001C441.53999999999996 2870.830000000001 441.58399999999995 2870.7200000000007 441.729 2870.5500000000006C441.979 2870.2600000000007 442.214 2870.080000000001 442.68399999999997 2870.080000000001L446.20099999999996 2870.080000000001C446.75499999999994 2870.190000000001 446.87999999999994 2870.4300000000007 446.955 2870.9900000000007L446.95799999999997 2874.870000000001C446.952 2875.080000000001 447.066 2875.7200000000007 447.45399999999995 2875.8600000000006C447.76499999999993 2875.9600000000005 447.96999999999997 2875.7100000000005 448.15599999999995 2875.5200000000004C448.99999999999994 2874.6300000000006 449.60099999999994 2873.5800000000004 450.13899999999995 2872.5000000000005C450.376 2872.0200000000004 450.58099999999996 2871.5200000000004 450.78 2871.0300000000007C450.928 2870.6600000000008 451.15799999999996 2870.4800000000005 451.575 2870.4800000000005L454.962 2870.4900000000007C455.062 2870.4900000000007 455.163 2870.4900000000007 455.262 2870.5100000000007C455.832 2870.600000000001 455.989 2870.850000000001 455.812 2871.4000000000005C455.534 2872.2700000000004 454.994 2872.9900000000007 454.466 2873.7200000000007C453.90000000000003 2874.4900000000007 453.297 2875.2400000000007 452.737 2876.020000000001C452.223 2876.730000000001 452.26300000000003 2877.090000000001 452.90200000000004 2877.710000000001Z " fill="#959595" fill-opacity="1" transform="matrix(1,0,0,1,-430,-2861)"></path></svg>