<svg id="SvgjsSvg1032" xmlns="http://www.w3.org/2000/svg" version="1.1" xmlns:xlink="http://www.w3.org/1999/xlink" xmlns:svgjs="http://svgjs.com/svgjs" width="32" height="31" viewBox="0 0 32 31"><title>Forma 1</title><desc>Created with Avocode.</desc><defs id="SvgjsDefs1033"></defs><path id="SvgjsPath1034" d="M498.843 2861C490.46700000000004 2861 483.653 2867.77 483.653 2876.08C483.653 2884.39 490.46700000000004 2891.16 498.843 2891.16C507.219 2891.16 514.034 2884.39 514.034 2876.08C514.034 2867.77 507.219 2861 498.843 2861ZM502.621 2876.61L500.15 2876.61C500.15 2880.53 500.15 2885.35 500.15 2885.35L496.488 2885.35C496.488 2885.35 496.488 2880.58 496.488 2876.61L494.747 2876.61L494.747 2873.52L496.488 2873.52L496.488 2871.52C496.488 2870.09 497.173 2867.85 500.183 2867.85L502.896 2867.86L502.896 2870.86C502.896 2870.86 501.247 2870.86 500.926 2870.86C500.606 2870.86 500.15 2871.02 500.15 2871.71L500.15 2873.52L502.941 2873.52Z " fill="#959595" fill-opacity="1" transform="matrix(1,0,0,1,-483,-2861)"></path></svg>