<svg id="SvgjsSvg1008" xmlns="http://www.w3.org/2000/svg" version="1.1" xmlns:xlink="http://www.w3.org/1999/xlink" xmlns:svgjs="http://svgjs.com/svgjs" width="34" height="35" viewBox="0 0 34 35"><title>Forma 1</title><desc>Created with Avocode.</desc><defs id="SvgjsDefs1009"></defs><path id="SvgjsPath1010" d="M726.75 82.4998L709.055 82.4998L701.617 65.4998L697 65.4998L697 63.3749L703.008 63.3749L710.445 80.37469999999999L726.75 80.37469999999999ZM731 64.4372C731 68.5442 727.669 71.8747 723.562 71.8747C719.456 71.8747 716.125 68.5442 716.125 64.4372C716.125 60.330400000000004 719.456 56.99980000000001 723.562 56.99980000000001C727.669 56.99980000000001 731 60.330400000000004 731 64.4372ZM727.812 63.3749L724.625 63.3749L724.625 60.1875L722.5 60.1875L722.5 63.3749L719.312 63.3749L719.312 65.4998L722.5 65.4998L722.5 68.68719999999999L724.625 68.68719999999999L724.625 65.4998L727.812 65.4998ZM716.125 87.8123C716.125 89.5719 714.697 90.9999 712.937 90.9999C711.176 90.9999 709.75 89.5719 709.75 87.8123C709.75 86.0526 711.176 84.6248 712.937 84.6248C714.697 84.6248 716.125 86.0526 716.125 87.8123ZM726.75 87.8123C726.75 89.5719 725.322 90.9999 723.562 90.9999C721.803 90.9999 720.375 89.5719 720.375 87.8123C720.375 86.0526 721.803 84.6248 723.562 84.6248C725.322 84.6248 726.75 86.0526 726.75 87.8123ZM729.203 72.1196L726.75 78.24980000000001L711.875 78.24980000000001L707.625 67.62490000000001L714.587 67.62490000000001C715.907 71.32700000000001 719.412 73.9997 723.562 73.9997C725.677 73.9997 727.617 73.2859 729.203 72.1196Z " fill="#d0d0d0" fill-opacity="1" transform="matrix(1,0,0,1,-697,-56)"></path></svg>