<svg id="SvgjsSvg1017" xmlns="http://www.w3.org/2000/svg" version="1.1" xmlns:xlink="http://www.w3.org/1999/xlink" xmlns:svgjs="http://svgjs.com/svgjs" width="41" height="29" viewBox="0 0 41 29"><title>Forma 1</title><desc>Created with Avocode.</desc><defs id="SvgjsDefs1018"></defs><path id="SvgjsPath1019" d="M73.4149 1773.67L71.9933 1773.67L71.9933 1765.67C71.9933 1764.73 71.7124 1763.8100000000002 71.19170000000001 1763.04L67.62880000000001 1757.72C66.75710000000001 1756.43 65.30620000000002 1755.65 63.750000000000014 1755.65L58.22720000000001 1755.65C57.57770000000001 1755.65 57.05710000000001 1756.18 57.05710000000001 1756.8300000000002L57.05710000000001 1773.67L48.01230000000001 1773.67C48.87230000000001 1774.42 49.46320000000001 1775.46 49.632900000000014 1776.64L59.169100000000014 1776.64C59.508400000000016 1774.3000000000002 61.50930000000002 1772.49 63.925500000000014 1772.49C66.34180000000002 1772.49 68.33670000000001 1774.3 68.67610000000002 1776.64L73.41490000000002 1776.64C73.73670000000001 1776.64 73.99990000000001 1776.3700000000001 73.99990000000001 1776.0500000000002L73.99990000000001 1774.2600000000002C73.99990000000001 1773.9300000000003 73.73670000000001 1773.6700000000003 73.41490000000002 1773.6700000000003ZM34.4393 1770.19048L34.4393 1771.32C34.4393 1771.6399999999999 34.702600000000004 1771.9099999999999 35.0244 1771.9099999999999L54.7988 1771.9099999999999C55.1207 1771.9099999999999 55.3839 1771.6399999999999 55.3839 1771.32L55.3839 1753.77C55.3839 1753.75312 55.38366 1753.73629 55.383199999999995 1753.7195199999999L55.383199999999995 1752.59C55.383199999999995 1752.27 55.119899999999994 1752 54.7981 1752L35.0236 1752C34.7018 1752 34.4386 1752.27 34.4386 1752.59L34.4386 1770.1399999999999C34.4386 1770.1568799999998 34.43884 1770.1737099999998 34.4393 1770.19048ZM44.8765 1773.67C42.8698 1773.67 41.2375 1775.3100000000002 41.2375 1777.3400000000001C41.2375 1779.3600000000001 42.8698 1781.0000000000002 44.8765 1781.0000000000002C46.889 1781.0000000000002 48.5155 1779.3600000000001 48.5155 1777.3400000000001C48.5155 1775.3100000000002 46.889 1773.67 44.8765 1773.67ZM63.9255 1773.67C61.9129 1773.67 60.2865 1775.3100000000002 60.2865 1777.3400000000001C60.2865 1779.3600000000001 61.91289999999999 1781.0000000000002 63.9255 1781.0000000000002C65.9321 1781.0000000000002 67.5645 1779.3600000000001 67.5645 1777.3400000000001C67.5645 1775.3100000000002 65.9322 1773.67 63.92549999999999 1773.67ZM67.5878 1764.09L60.2982 1764.09C59.9764 1764.09 59.713100000000004 1763.84 59.713100000000004 1763.51L59.713100000000004 1759.44C59.713100000000004 1759.1100000000001 59.976400000000005 1758.8500000000001 60.2982 1758.8500000000001L64.7387 1758.8500000000001C64.9318 1758.8500000000001 65.1073 1758.94 65.21839999999999 1759.1000000000001L68.06759999999998 1763.17C68.33669999999998 1763.5600000000002 68.06169999999999 1764.0900000000001 67.58779999999999 1764.0900000000001ZM33.0001 1774.26L33.0001 1776.05C33.0001 1776.37 33.263400000000004 1776.6399999999999 33.5852 1776.6399999999999L40.1259 1776.6399999999999C40.2956 1775.4599999999998 40.8865 1774.4199999999998 41.7406 1773.6699999999998L33.5852 1773.6699999999998C33.2634 1773.6699999999998 33.0001 1773.9299999999998 33.0001 1774.2599999999998ZM63.9255 1779.17C62.9191 1779.17 62.106 1778.3400000000001 62.106 1777.3400000000001C62.106 1776.3200000000002 62.9191 1775.5100000000002 63.9255 1775.5100000000002C64.9317 1775.5100000000002 65.745 1776.3200000000002 65.745 1777.3400000000001C65.745 1778.3400000000001 64.93180000000001 1779.17 63.92550000000001 1779.17ZM44.8765 1779.17C43.8702 1779.17 43.057 1778.3400000000001 43.057 1777.3400000000001C43.057 1776.3200000000002 43.870200000000004 1775.5100000000002 44.8765 1775.5100000000002C45.8827 1775.5100000000002 46.696 1776.3200000000002 46.696 1777.3400000000001C46.696 1778.3400000000001 45.8827 1779.17 44.8765 1779.17Z " fill="#15308c" fill-opacity="1" transform="matrix(1,0,0,1,-33,-1752)"></path></svg>