<svg id="SvgjsSvg1023" xmlns="http://www.w3.org/2000/svg" version="1.1" xmlns:xlink="http://www.w3.org/1999/xlink" xmlns:svgjs="http://svgjs.com/svgjs" width="29" height="39" viewBox="0 0 29 39"><title>Forma 1</title><desc>Created with Avocode.</desc><defs id="SvgjsDefs1024"></defs><path id="SvgjsPath1025" d="M654.167 1760.41C654.167 1753.01 649.831 1747 644.5 1747C639.171 1747 634.833 1753.01 634.833 1760.41L630 1760.41L630 1786L659 1786L659 1760.41ZM644.5 1749.44C648.498 1749.44 651.75 1754.3600000000001 651.75 1760.41L637.25 1760.41C637.25 1754.3600000000001 640.502 1749.44 644.5 1749.44ZM636.042 1765.28C635.374 1765.28 634.8330000000001 1764.74 634.8330000000001 1764.06C634.8330000000001 1763.3899999999999 635.3740000000001 1762.84 636.042 1762.84C636.71 1762.84 637.25 1763.3899999999999 637.25 1764.06C637.25 1764.74 636.71 1765.28 636.042 1765.28ZM652.958 1765.28C652.29 1765.28 651.75 1764.74 651.75 1764.06C651.75 1763.3899999999999 652.29 1762.84 652.958 1762.84C653.626 1762.84 654.1669999999999 1763.3899999999999 654.1669999999999 1764.06C654.1669999999999 1764.74 653.6259999999999 1765.28 652.958 1765.28Z " fill="#15308c" fill-opacity="1" transform="matrix(1,0,0,1,-630,-1747)"></path></svg>