<svg id="SvgjsSvg1041" xmlns="http://www.w3.org/2000/svg" version="1.1" xmlns:xlink="http://www.w3.org/1999/xlink" xmlns:svgjs="http://svgjs.com/svgjs" width="28" height="16" viewBox="0 0 28 16"><title>Forma 1</title><desc>Created with Avocode.</desc><defs id="SvgjsDefs1042"></defs><path id="SvgjsPath1043" d="M393.426 1809.93C388.204 1804.66 379.70799999999997 1804.66 374.486 1809.93L370.998 1813.44L374.573 1817.05C377.18399999999997 1819.68 380.613 1820.99 384.043 1820.99C387.473 1820.99 390.902 1819.68 393.51300000000003 1817.05L397.00100000000003 1813.53ZM392.892 1816.42C388.012 1821.3400000000001 380.073 1821.3400000000001 375.194 1816.42L372.24100000000004 1813.44L375.107 1810.55C379.987 1805.6299999999999 387.92600000000004 1805.6299999999999 392.805 1810.55L395.759 1813.53ZM383.548 1809.93C381.853 1809.93 380.473 1811.3200000000002 380.473 1813.03C380.473 1813.27 380.67 1813.47 380.913 1813.47C381.15500000000003 1813.47 381.35200000000003 1813.27 381.35200000000003 1813.03C381.35200000000003 1811.81 382.33700000000005 1810.82 383.54800000000006 1810.82C383.79100000000005 1810.82 383.9870000000001 1810.62 383.9870000000001 1810.37C383.9870000000001 1810.1299999999999 383.79100000000005 1809.9299999999998 383.54800000000006 1809.9299999999998ZM383.987 1807.72C380.839 1807.72 378.27700000000004 1810.3 378.27700000000004 1813.47C378.27700000000004 1816.65 380.83900000000006 1819.23 383.987 1819.23C387.136 1819.23 389.697 1816.65 389.697 1813.47C389.697 1810.3 387.136 1807.72 383.987 1807.72ZM383.987 1818.34C381.32300000000004 1818.34 379.156 1816.1599999999999 379.156 1813.47C379.156 1810.79 381.323 1808.6000000000001 383.987 1808.6000000000001C386.651 1808.6000000000001 388.819 1810.7900000000002 388.819 1813.47C388.819 1816.16 386.65200000000004 1818.34 383.987 1818.34Z " fill="#000000" fill-opacity="1" transform="matrix(1,0,0,1,-370,-1805)"></path></svg>