<svg id="SvgjsSvg1038" xmlns="http://www.w3.org/2000/svg" version="1.1" xmlns:xlink="http://www.w3.org/1999/xlink" xmlns:svgjs="http://svgjs.com/svgjs" width="38" height="38" viewBox="0 0 38 38"><title>Forma 1</title><desc>Created with Avocode.</desc><defs id="SvgjsDefs1039"></defs><path id="SvgjsPath1040" d="M45.4375 825.75L32.375 825.75L32.375 818.975L30 817.618L30 828.125L45.4375 828.125ZM45.4375 819.655L45.4375 816.927L40.6875 819.6320000000001L34.75 816.2500000000001L45.1731 816.2500000000001C44.7022 815.2990000000001 44.0088 814.4830000000001 43.1552 813.8750000000001L30 813.8750000000001L30 816.2500000000001L40.6875 822.3680000000002ZM67.9999 816.25L67.9999 832.875L53.7499 832.875L53.7499 840L46.625 840L46.625 832.875L30 832.875L30 830.5L46.625 830.5L46.625 816.612C45.5999 813.587 42.7146 811.5 39.5 811.5L33.1125 811.5C34.858999999999995 810.018 37.090199999999996 809.125 39.5 809.125C42.1811 809.125 47.0099 809.125 51.375 809.125L51.375 802L60.8749 802L60.8749 806.75L53.7499 806.75L53.7499 818.625L56.1249 818.625L56.1249 809.125C57.0203 809.125 57.831999999999994 809.125 58.4999 809.125C62.8974 809.125 66.7684 812.029 67.9999 816.25Z " fill="#15308c" fill-opacity="1" transform="matrix(1,0,0,1,-30,-802)"></path></svg>