<svg id="SvgjsSvg1000" xmlns="http://www.w3.org/2000/svg" version="1.1" xmlns:xlink="http://www.w3.org/1999/xlink" xmlns:svgjs="http://svgjs.com/svgjs" width="26" height="26" viewBox="0 0 26 26"><title>Forma 1</title><desc>Created with Avocode.</desc><defs id="SvgjsDefs1001"></defs><path id="SvgjsPath1007" d="M320.687 87.8502C316.872 84.0356 310.664 84.0356 306.849 87.8502C303.036 91.6654 303.036 97.8721 306.849 101.687C310.246 105.083 315.537 105.447 319.349 102.795C319.429 103.175 319.613 103.536 319.907 103.83200000000001L325.46299999999997 109.385C326.27099999999996 110.194 327.57899999999995 110.194 328.38599999999997 109.385C329.19399999999996 108.578 329.19399999999996 107.27000000000001 328.38599999999997 106.46300000000001L322.83099999999996 100.90700000000001C322.537 100.61300000000001 322.174 100.42900000000002 321.794 100.35000000000001C324.448 96.53720000000001 324.084 91.2488 320.68699999999995 87.8502ZM318.933 99.9335C316.085 102.78099999999999 311.45099999999996 102.78099999999999 308.603 99.9335C305.757 97.08579999999999 305.757 92.45259999999999 308.603 89.6048C311.451 86.7574 316.08500000000004 86.7574 318.933 89.6048C321.781 92.4526 321.781 97.08579999999999 318.933 99.9335Z " fill="#d0d0d0" fill-opacity="1" transform="matrix(1,0,0,1,-303,-84)"></path></svg>